<?xml version="1.0" standalone="no"?>
<!DOCTYPE svg PUBLIC "-//W3C//DTD SVG 20010904//EN"
 "http://www.w3.org/TR/2001/REC-SVG-20010904/DTD/svg10.dtd">
<svg version="1.0" xmlns="http://www.w3.org/2000/svg"
 width="1281.000000pt" height="1281.000000pt" viewBox="0 0 1281.000000 1281.000000"
 preserveAspectRatio="xMidYMid meet">
<metadata>
Created by potrace 1.14, written by Peter Selinger 2001-2017
</metadata>
<g transform="translate(0.000000,1281.000000) scale(0.100000,-0.100000)"
fill="#000000" stroke="none">
<path d="M10220 12788 c-253 -74 -404 -131 -556 -212 -395 -210 -650 -518
-745 -896 l-21 -85 -3 -2700 c-4 -3182 -5 -3259 -51 -3765 -36 -397 -142 -589
-427 -781 -204 -136 -490 -238 -758 -269 -51 -6 -107 -13 -124 -15 -16 -3
-388 -5 -825 -5 l-795 0 0 -655 0 -655 540 -1 c297 -1 666 -2 820 -2 377 -1
681 14 905 43 42 6 92 12 113 15 20 3 56 9 79 14 24 6 59 13 78 16 253 43 619
225 910 455 297 233 580 557 670 765 35 80 43 100 45 105 0 3 15 48 33 100 31
94 87 312 97 387 4 21 8 45 10 53 2 8 7 35 10 60 3 25 10 70 15 100 5 30 12
87 16 125 3 39 8 78 10 88 14 78 17 674 16 3962 0 2057 -1 3746 -1 3753 -1 14
-12 14 -61 0z"/>
<path d="M4677 10314 c-1 -1 -49 -5 -107 -9 -57 -3 -107 -8 -110 -10 -3 -1
-36 -6 -75 -10 -92 -10 -95 -11 -130 -18 -16 -4 -46 -9 -65 -12 -138 -22 -430
-109 -558 -166 -113 -51 -135 -62 -207 -105 -144 -85 -203 -131 -325 -253
-259 -261 -439 -602 -553 -1051 l-32 -125 1 -2021 c1 -1111 4 -2052 7 -2090
14 -149 69 -398 127 -575 174 -526 504 -910 910 -1058 19 -7 44 -17 55 -21 32
-14 149 -40 176 -40 l24 0 1 1813 c1 2162 13 3266 39 3497 49 434 335 734 818
859 77 20 94 23 217 40 36 4 872 7 1875 4 l1810 -4 0 650 c0 357 -3 652 -6
655 -5 5 -246 9 -1239 21 -632 8 -1177 14 -1670 21 -526 7 -980 10 -983 8z"/>
<path d="M5717 8604 c-1 -1 -108 -5 -237 -9 -129 -3 -255 -8 -280 -10 -25 -2
-85 -6 -135 -9 -271 -16 -451 -70 -582 -175 -116 -92 -226 -265 -258 -405 -3
-12 -10 -43 -17 -71 -9 -39 -12 -934 -13 -3988 l0 -3937 40 5 c57 9 260 54
325 73 30 8 60 17 65 18 6 1 33 10 60 19 477 164 771 432 859 782 l22 88 -1
3160 0 3160 575 -1 c316 -1 591 -4 610 -8 19 -4 46 -9 60 -11 40 -7 147 -51
182 -76 53 -36 142 -134 168 -186 l25 -48 1 -453 c1 -249 -3 -475 -8 -504 -25
-139 -141 -219 -393 -274 -16 -3 -216 -7 -443 -9 -227 -1 -416 -6 -420 -10 -4
-3 -7 -297 -7 -651 l0 -644 30 -1 c172 -4 1369 0 1429 6 110 9 241 32 376 65
326 80 476 168 596 352 104 159 168 361 188 598 17 193 25 1532 12 1990 -10
367 -19 445 -71 588 -110 305 -389 500 -765 536 -30 3 -138 8 -240 11 -102 4
-228 8 -280 10 -304 12 -1464 26 -1473 19z"/>
</g>
</svg>
